<svg width="24" height="25" viewBox="0 0 24 25" fill="none" xmlns="http://www.w3.org/2000/svg">
<path d="M1.5 4.25C1.5 3.65326 1.73705 3.08097 2.15901 2.65901C2.58097 2.23705 3.15326 2 3.75 2H8.25C8.84674 2 9.41903 2.23705 9.84099 2.65901C10.2629 3.08097 10.5 3.65326 10.5 4.25V8.75C10.5 9.34674 10.2629 9.91903 9.84099 10.341C9.41903 10.7629 8.84674 11 8.25 11H3.75C3.15326 11 2.58097 10.7629 2.15901 10.341C1.73705 9.91903 1.5 9.34674 1.5 8.75V4.25ZM13.5 4.25C13.5 3.65326 13.7371 3.08097 14.159 2.65901C14.581 2.23705 15.1533 2 15.75 2H20.25C20.8467 2 21.419 2.23705 21.841 2.65901C22.2629 3.08097 22.5 3.65326 22.5 4.25V8.75C22.5 9.34674 22.2629 9.91903 21.841 10.341C21.419 10.7629 20.8467 11 20.25 11H15.75C15.1533 11 14.581 10.7629 14.159 10.341C13.7371 9.91903 13.5 9.34674 13.5 8.75V4.25ZM1.5 16.25C1.5 15.6533 1.73705 15.081 2.15901 14.659C2.58097 14.2371 3.15326 14 3.75 14H8.25C8.84674 14 9.41903 14.2371 9.84099 14.659C10.2629 15.081 10.5 15.6533 10.5 16.25V20.75C10.5 21.3467 10.2629 21.919 9.84099 22.341C9.41903 22.7629 8.84674 23 8.25 23H3.75C3.15326 23 2.58097 22.7629 2.15901 22.341C1.73705 21.919 1.5 21.3467 1.5 20.75V16.25ZM13.5 16.25C13.5 15.6533 13.7371 15.081 14.159 14.659C14.581 14.2371 15.1533 14 15.75 14H20.25C20.8467 14 21.419 14.2371 21.841 14.659C22.2629 15.081 22.5 15.6533 22.5 16.25V20.75C22.5 21.3467 22.2629 21.919 21.841 22.341C21.419 22.7629 20.8467 23 20.25 23H15.75C15.1533 23 14.581 22.7629 14.159 22.341C13.7371 21.919 13.5 21.3467 13.5 20.75V16.25Z" fill="#A1A0BD"/>
</svg>
